<?xml version="1.0" encoding="utf-8"?>
<!-- Generator: Adobe Illustrator 16.0.0, SVG Export Plug-In . SVG Version: 6.00 Build 0)  -->
<!DOCTYPE svg PUBLIC "-//W3C//DTD SVG 1.1//EN" "http://www.w3.org/Graphics/SVG/1.1/DTD/svg11.dtd">
<svg version="1.1" id="Layer_1" xmlns="http://www.w3.org/2000/svg" xmlns:xlink="http://www.w3.org/1999/xlink" x="0px" y="0px"
	 width="525px" height="145.053px" viewBox="0 0 525 145.053" enable-background="new 0 0 525 145.053" xml:space="preserve">
<path fill="#B4D334" d="M259.07-0.546c-40.593,0-73.5,32.907-73.5,73.5c0,34.7,24.049,63.781,56.389,71.492
	c-0.832-2.816-1.293-5.902-1.293-9.139c0-13.227,7.658-23.948,17.106-23.948s17.106,10.722,17.106,23.948
	c0,3.472-0.531,6.768-1.48,9.746c33.732-6.667,59.172-36.41,59.172-72.1C332.57,32.36,299.663-0.546,259.07-0.546z"/>
<path fill="#FFFFFF" d="M286.55,48.006h-18.083c-0.38-2.523-2.551-4.459-5.18-4.459h-9.325c-2.629,0-4.8,1.936-5.18,4.459h-17.191
	c-12.331,0-22.325,9.996-22.325,22.325c0,12.33,9.994,22.326,22.325,22.326c4.296,0,8.306-1.216,11.712-3.319
	c-0.025,0.359-0.041,0.72-0.041,1.084c0,8.731,7.077,15.809,15.809,15.809c8.73,0,15.809-7.078,15.809-15.809
	c0-0.365-0.016-0.726-0.041-1.084c3.405,2.103,7.416,3.319,11.712,3.319c12.331,0,22.325-9.996,22.325-22.326
	C308.875,58.002,298.881,48.006,286.55,48.006z"/>
<g>
	<path fill="#AECA36" d="M237.41,67.711h-2.759v-2.759c0-1.798-1.458-3.255-3.256-3.255s-3.255,1.458-3.255,3.255v2.759h-2.76
		c-1.798,0-3.256,1.458-3.256,3.255c0,1.798,1.458,3.256,3.256,3.256h2.76v2.759c0,1.798,1.457,3.256,3.255,3.256
		s3.256-1.458,3.256-3.256v-2.759h2.759c1.799,0,3.256-1.458,3.256-3.256C240.666,69.169,239.209,67.711,237.41,67.711z"/>
	<circle fill="#AECA36" cx="286.55" cy="62.469" r="3.915"/>
	<circle fill="#AECA36" cx="286.55" cy="79.465" r="3.915"/>
	<circle fill="#AECA36" cx="295.036" cy="70.647" r="3.926"/>
	<circle fill="#AECA36" cx="278.041" cy="70.647" r="3.926"/>
</g>
<g>
	<path fill="#1B485A" d="M32.089,98.489v-30.41l-10.43,19.717h-4.102L7.187,68.079v30.41H0.653V57.942h8.408l10.664,20.684
		l10.752-20.684h8.203v40.547H32.089z"/>
	<path fill="#1B485A" d="M78.117,78.215c0,3.321-0.318,6.284-0.952,8.892c-0.635,2.607-1.641,4.819-3.018,6.636
		s-3.14,3.204-5.288,4.16c-2.149,0.957-4.727,1.436-7.734,1.436c-3.008,0-5.581-0.479-7.72-1.436s-3.896-2.344-5.273-4.16
		s-2.388-4.028-3.032-6.636s-0.967-5.571-0.967-8.892c0-3.32,0.322-6.289,0.967-8.906c0.645-2.617,1.655-4.829,3.032-6.636
		c1.377-1.806,3.135-3.188,5.273-4.146c2.139-0.957,4.712-1.436,7.72-1.436c3.007,0,5.585,0.474,7.734,1.421
		c2.148,0.948,3.911,2.325,5.288,4.131c1.377,1.807,2.383,4.019,3.018,6.636C77.799,71.897,78.117,74.875,78.117,78.215z
		 M70.968,78.215c0-2.52-0.176-4.721-0.527-6.606c-0.352-1.885-0.918-3.452-1.699-4.702c-0.781-1.25-1.797-2.187-3.047-2.813
		c-1.25-0.625-2.773-0.938-4.57-0.938c-1.816,0-3.354,0.313-4.614,0.938c-1.26,0.625-2.281,1.563-3.062,2.813
		c-0.781,1.25-1.348,2.817-1.699,4.702c-0.352,1.885-0.527,4.087-0.527,6.606s0.176,4.722,0.527,6.606
		c0.352,1.885,0.923,3.453,1.714,4.702c0.791,1.25,1.816,2.188,3.076,2.813c1.26,0.625,2.788,0.938,4.585,0.938
		c1.797,0,3.32-0.308,4.57-0.923c1.25-0.615,2.266-1.548,3.047-2.798c0.781-1.25,1.348-2.817,1.699-4.702
		C70.792,82.966,70.968,80.754,70.968,78.215z"/>
	<path fill="#1B485A" d="M106.713,98.489L90.219,66.643v31.846h-6.65V57.942h9.287l15.322,29.619V57.942h6.65v40.547H106.713z"/>
	<path fill="#1B485A" d="M144.713,98.489l-12.598-17.461l-3.135,3.604v13.857h-6.826V57.942h6.826v17.871l15.205-17.871h8.203
		l-15.85,18.047l16.816,22.5H144.713z"/>
	<path fill="#1B485A" d="M173.221,98.489h-18.076v-5.508h5.596V63.45h-5.596v-5.508h18.076v5.508h-5.654v29.531h5.654V98.489z"/>
</g>
<g>
	<path fill="#B4D334" d="M371.695,68.547c-0.996-1.718-2.261-3.047-3.794-3.984c-1.534-0.938-3.53-1.406-5.991-1.406
		c-1.719,0-3.267,0.269-4.644,0.806c-1.377,0.538-2.549,1.411-3.516,2.622c-0.967,1.211-1.71,2.788-2.227,4.731
		c-0.518,1.944-0.776,4.321-0.776,7.134c0,2.461,0.209,4.619,0.63,6.475c0.42,1.856,1.084,3.398,1.992,4.629
		s2.075,2.158,3.501,2.783c1.426,0.625,3.145,0.938,5.156,0.938c1.504,0,2.904-0.161,4.204-0.483
		c1.299-0.322,2.622-0.786,3.97-1.392V83.43h-8.877v-6.123h15.703v17.695c-2.051,1.329-4.312,2.383-6.782,3.164
		c-2.472,0.781-5.171,1.172-8.101,1.172c-6.328,0-10.986-1.733-13.975-5.2c-2.988-3.467-4.482-8.696-4.482-15.688
		c0-3.438,0.355-6.484,1.069-9.141c0.713-2.656,1.816-4.888,3.311-6.694c1.494-1.806,3.388-3.179,5.684-4.116
		c2.295-0.938,5.015-1.406,8.159-1.406c2.129,0,4.014,0.201,5.654,0.601c1.641,0.4,3.071,0.942,4.292,1.626
		c1.22,0.684,2.256,1.475,3.105,2.373c0.85,0.898,1.558,1.846,2.124,2.842L371.695,68.547z"/>
	<path fill="#B4D334" d="M380.076,98.489l13.623-40.547h8.877l13.682,40.547h-7.09l-3.105-9.346h-16.084l-3.076,9.346H380.076z
		 M391.941,83.02h12.07l-6.006-18.252L391.941,83.02z"/>
	<path fill="#B4D334" d="M451.3,98.489v-30.41l-10.43,19.717h-4.102l-10.371-19.717v30.41h-6.533V57.942h8.408l10.664,20.684
		l10.752-20.684h8.203v40.547H451.3z"/>
	<path fill="#B4D334" d="M465.218,98.489V57.942h25.547v6.094h-18.721v10.283h15.908v6.123h-15.908v11.807h18.721v6.24H465.218z"/>
	<path fill="#B4D334" d="M524.723,87.092c0,2.285-0.406,4.204-1.217,5.757s-1.908,2.813-3.295,3.779
		c-1.388,0.967-3.004,1.66-4.85,2.08s-3.804,0.63-5.873,0.63c-2.188,0-4.102-0.205-5.742-0.615s-3.076-0.967-4.307-1.67
		s-2.281-1.523-3.15-2.461s-1.625-1.943-2.27-3.018l5.391-3.896c0.487,0.762,1.029,1.479,1.625,2.153s1.289,1.265,2.08,1.772
		c0.791,0.508,1.715,0.913,2.77,1.216c1.055,0.303,2.274,0.454,3.662,0.454c1.035,0,2.045-0.098,3.031-0.293
		c0.986-0.195,1.861-0.517,2.623-0.967c0.762-0.449,1.371-1.035,1.83-1.758c0.459-0.722,0.689-1.621,0.689-2.695
		c0-1.015-0.221-1.865-0.66-2.549c-0.439-0.684-1.029-1.26-1.771-1.729c-0.743-0.469-1.611-0.859-2.607-1.172
		c-0.996-0.312-2.062-0.615-3.193-0.908c-2.07-0.527-3.995-1.069-5.771-1.626c-1.777-0.557-3.321-1.264-4.629-2.124
		c-1.309-0.859-2.34-1.953-3.092-3.281c-0.752-1.328-1.127-3.027-1.127-5.098c0-1.835,0.312-3.491,0.938-4.966
		c0.625-1.475,1.542-2.734,2.754-3.779c1.211-1.044,2.719-1.846,4.525-2.402s3.883-0.835,6.227-0.835
		c1.758,0,3.363,0.161,4.818,0.483s2.773,0.791,3.955,1.406s2.242,1.377,3.18,2.285s1.758,1.938,2.461,3.091l-5.303,3.955
		c-1.074-1.718-2.344-3.007-3.809-3.867c-1.465-0.859-3.252-1.289-5.361-1.289c-2.285,0-4.098,0.469-5.436,1.406
		s-2.006,2.266-2.006,3.984c0,0.86,0.18,1.578,0.541,2.153c0.361,0.576,0.918,1.08,1.67,1.509c0.752,0.43,1.699,0.816,2.842,1.157
		c1.143,0.342,2.495,0.699,4.059,1.069c1.211,0.293,2.387,0.605,3.529,0.938c1.143,0.333,2.227,0.718,3.252,1.157
		s1.968,0.957,2.828,1.553c0.859,0.596,1.596,1.314,2.211,2.153c0.615,0.84,1.1,1.821,1.451,2.944
		C524.547,84.305,524.723,85.608,524.723,87.092z"/>
</g>
<path fill="#B4D334" d="M366.563,75.032"/>
</svg>
